<svg width="1452" height="250" viewBox="0 0 1452 250" fill="none" xmlns="http://www.w3.org/2000/svg">
<path d="M785.399 0C754.229 0 734.976 17.094 734.976 44.5666V61.0501C734.976 72.0391 731.615 74.1758 722.752 74.1758H713.585V110.501H734.976V244.506H777.759V110.501H813.514V74.1758H777.759V52.1978C777.759 41.5141 783.871 36.63 794.873 36.63C800.679 36.63 807.402 37.5458 813.514 39.9878V4.57877C804.346 1.83151 794.873 0 785.399 0Z" fill="white"/>
<path d="M132.265 244.506V74.1758H175.353V244.506H132.265Z" fill="white"/>
<path d="M126.458 28.3883C126.458 14.0415 136.543 3.35776 153.962 3.35776C170.769 3.35776 180.854 14.0415 180.854 28.3883C180.854 43.0403 170.769 53.7241 153.962 53.7241C136.543 53.7241 126.458 43.0403 126.458 28.3883Z" fill="white"/>
<path d="M71.5089 250C40.9495 250 21.6971 232.906 21.6971 205.433V110.501H0V74.1758H9.4734C18.3356 74.1758 21.6971 72.0391 21.6971 61.0501V46.0928L64.4802 32.967V74.1758H98.7067V110.501H64.4802V197.802C64.4802 208.486 70.5921 213.37 80.9823 213.37C86.1774 213.37 93.206 212.454 99.0123 210.012V245.421C89.8445 248.169 80.3711 250 71.5089 250Z" fill="white"/>
<path d="M221.197 74.1758V244.506H264.286V152.625C264.286 126.374 280.482 109.28 305.541 109.28C323.265 109.28 334.572 121.184 334.572 140.11V244.506H377.355V152.625C377.355 126.374 393.858 109.28 418.611 109.28C436.335 109.28 447.948 121.184 447.948 140.11V244.506H490.731V130.952C490.731 93.4066 467.811 68.6813 434.501 68.6813C405.776 68.6813 383.773 84.8596 377.967 109.28H374.605C367.271 84.2491 347.407 68.6813 321.126 68.6813C292.4 68.6813 271.009 84.8596 265.203 109.28H261.536V74.1758H221.197Z" fill="white"/>
<path fill-rule="evenodd" clip-rule="evenodd" d="M622.241 249.695C564.178 249.695 525.062 217.338 525.062 159.341C525.062 104.701 558.983 68.6813 611.545 68.6813C661.051 68.6813 691.916 101.038 691.916 157.204C691.916 163.004 691.611 170.94 690.999 177.35H569.984C574.874 197.497 593.515 209.402 626.519 209.402C645.16 209.402 660.44 206.654 675.72 200.549V239.316C659.523 246.337 642.41 249.695 622.241 249.695ZM568.762 147.131H648.216C648.216 120.574 635.687 106.227 611.545 106.227C586.792 106.227 570.596 121.184 568.762 147.131Z" fill="white"/>
<path d="M1078.87 59.7265C1131.47 59.7265 1174.11 102.321 1174.11 154.863V209.299H1235.23C1246.48 209.299 1255.61 218.41 1255.61 229.649C1255.61 240.888 1246.48 249.999 1235.23 249.999H1174.11C1151.61 249.999 1133.37 231.777 1133.37 209.299V154.863C1133.37 124.799 1108.97 100.427 1078.87 100.427C1048.77 100.427 1024.37 124.799 1024.37 154.863C1024.37 207.405 981.731 249.999 929.13 249.999C876.528 249.999 833.886 207.405 833.886 154.863C833.886 102.321 876.528 59.7265 929.13 59.7265H949.502C960.754 59.7265 969.875 68.8375 969.875 80.0765C969.875 91.3155 960.754 100.427 949.502 100.427H929.13C899.031 100.427 874.632 124.799 874.632 154.863C874.632 184.927 899.031 209.299 929.13 209.299C959.228 209.299 983.627 184.927 983.627 154.863C983.627 102.321 1026.27 59.7265 1078.87 59.7265Z" fill="white"/>
<path fill-rule="evenodd" clip-rule="evenodd" d="M1275.98 159.034C1275.98 212.758 1306.84 249.998 1351.77 249.998C1378.66 249.998 1400.05 235.346 1407.69 210.621H1411.36V244.504H1452V5.49292H1408.91V107.447H1405.55C1399.13 83.3318 1380.49 68.6797 1352.38 68.6797C1306.84 68.6797 1275.98 105.31 1275.98 159.034ZM1365.21 210.011C1338.32 210.011 1320.29 189.559 1320.29 159.034C1320.29 128.814 1338.32 108.668 1365.21 108.668C1392.1 108.668 1410.13 128.814 1410.13 159.034C1410.13 189.559 1392.1 210.011 1365.21 210.011Z" fill="white"/>
</svg>
